<svg width="732" height="173" viewBox="0 0 732 173" fill="none" xmlns="http://www.w3.org/2000/svg">
<path d="M554.496 35.3162C560.417 35.3162 565.68 36.632 570.285 39.2637C574.89 41.8014 578.461 45.6079 580.998 50.6833C583.63 55.6647 584.945 61.68 584.945 68.7291V114.549H565.21V71.4078C565.21 65.2045 563.659 60.4581 560.558 57.1685C557.457 53.7849 553.228 52.0931 547.871 52.0931C542.42 52.0931 538.097 53.7849 534.902 57.1685C531.801 60.4581 530.25 65.2045 530.25 71.4078V114.549H510.514V10.2213H530.25V46.1719C532.787 42.7883 536.171 40.1566 540.4 38.2768C544.629 36.3031 549.328 35.3162 554.496 35.3162Z" fill="black"/>
<path d="M613.722 27.1392C610.244 27.1392 607.331 26.0583 604.982 23.8966C602.726 21.6409 601.598 18.8682 601.598 15.5786C601.598 12.289 602.726 9.56333 604.982 7.40159C607.331 5.14587 610.244 4.018 613.722 4.018C617.199 4.018 620.065 5.14587 622.321 7.40159C624.67 9.56333 625.845 12.289 625.845 15.5786C625.845 18.8682 624.67 21.6409 622.321 23.8966C620.065 26.0583 617.199 27.1392 613.722 27.1392ZM623.448 36.4441V114.549H603.713V36.4441H623.448Z" fill="black"/>
<path d="M678.753 52.6571H665.079V114.549H645.062V52.6571H636.181V36.4441H645.062V32.4965C645.062 22.9097 647.787 15.8606 653.238 11.3491C658.688 6.83766 666.912 4.72292 677.907 5.00489V21.6409C673.114 21.5469 669.778 22.3458 667.898 24.0376C666.019 25.7294 665.079 28.784 665.079 33.2014V36.4441H678.753V52.6571Z" fill="black"/>
<path d="M714.52 52.6571V90.4405C714.52 93.0722 715.131 94.9989 716.353 96.2208C717.668 97.3486 719.83 97.9126 722.837 97.9126H732V114.549H719.595C702.961 114.549 694.644 106.466 694.644 90.2995V52.6571H685.34V36.4441H694.644V17.1294H714.52V36.4441H732V52.6571H714.52Z" fill="black"/>
<path d="M234.665 143.309V172.704H229.843V143.309H234.665Z" fill="black"/>
<path d="M259.983 143.309V147.242H252.159V172.704H247.338V147.242H239.472V143.309H259.983Z" fill="black"/>
<path d="M285.535 173C283.562 173 281.785 172.662 280.207 171.985C278.628 171.28 277.387 170.293 276.485 169.024C275.583 167.755 275.132 166.275 275.132 164.583H280.291C280.404 165.852 280.897 166.895 281.771 167.713C282.673 168.531 283.928 168.94 285.535 168.94C287.199 168.94 288.495 168.545 289.426 167.755C290.356 166.938 290.821 165.894 290.821 164.626C290.821 163.639 290.525 162.835 289.933 162.215C289.369 161.594 288.651 161.115 287.777 160.777C286.931 160.438 285.747 160.072 284.224 159.677C282.307 159.17 280.742 158.662 279.53 158.155C278.346 157.619 277.331 156.801 276.485 155.701C275.639 154.602 275.216 153.136 275.216 151.303C275.216 149.611 275.639 148.131 276.485 146.862C277.331 145.593 278.515 144.62 280.037 143.943C281.56 143.267 283.322 142.928 285.324 142.928C288.171 142.928 290.497 143.647 292.302 145.085C294.134 146.495 295.149 148.441 295.346 150.922H290.018C289.933 149.851 289.426 148.934 288.495 148.173C287.565 147.412 286.339 147.031 284.816 147.031C283.435 147.031 282.307 147.383 281.433 148.088C280.559 148.793 280.122 149.808 280.122 151.134C280.122 152.036 280.39 152.783 280.925 153.375C281.489 153.939 282.194 154.39 283.04 154.729C283.886 155.067 285.042 155.434 286.508 155.828C288.453 156.364 290.032 156.9 291.244 157.436C292.485 157.971 293.528 158.803 294.374 159.931C295.248 161.031 295.685 162.511 295.685 164.372C295.685 165.866 295.276 167.276 294.458 168.601C293.669 169.927 292.499 170.998 290.948 171.816C289.426 172.605 287.621 173 285.535 173Z" fill="black"/>
<path d="M314.78 173C312.045 173 309.521 172.366 307.21 171.097C304.926 169.8 303.107 168.009 301.754 165.725C300.429 163.413 299.766 160.819 299.766 157.943C299.766 155.067 300.429 152.487 301.754 150.203C303.107 147.919 304.926 146.143 307.21 144.874C309.521 143.577 312.045 142.928 314.78 142.928C317.542 142.928 320.066 143.577 322.349 144.874C324.661 146.143 326.48 147.919 327.805 150.203C329.13 152.487 329.793 155.067 329.793 157.943C329.793 160.819 329.13 163.413 327.805 165.725C326.48 168.009 324.661 169.8 322.349 171.097C320.066 172.366 317.542 173 314.78 173ZM314.78 168.813C316.725 168.813 318.459 168.376 319.981 167.502C321.504 166.599 322.688 165.331 323.534 163.695C324.408 162.032 324.845 160.114 324.845 157.943C324.845 155.772 324.408 153.869 323.534 152.233C322.688 150.598 321.504 149.343 319.981 148.469C318.459 147.595 316.725 147.158 314.78 147.158C312.834 147.158 311.1 147.595 309.578 148.469C308.055 149.343 306.857 150.598 305.983 152.233C305.137 153.869 304.714 155.772 304.714 157.943C304.714 160.114 305.137 162.032 305.983 163.695C306.857 165.331 308.055 166.599 309.578 167.502C311.1 168.376 312.834 168.813 314.78 168.813Z" fill="black"/>
<path d="M339.358 168.813H349.296V172.704H334.537V143.309H339.358V168.813Z" fill="black"/>
<path d="M358.107 143.309V162.046C358.107 164.273 358.685 165.951 359.84 167.079C361.025 168.207 362.66 168.771 364.746 168.771C366.861 168.771 368.496 168.207 369.652 167.079C370.836 165.951 371.428 164.273 371.428 162.046V143.309H376.249V161.961C376.249 164.358 375.728 166.388 374.684 168.052C373.641 169.715 372.246 170.956 370.498 171.773C368.75 172.591 366.818 173 364.704 173C362.589 173 360.658 172.591 358.91 171.773C357.19 170.956 355.823 169.715 354.808 168.052C353.793 166.388 353.285 164.358 353.285 161.961V143.309H358.107Z" fill="black"/>
<path d="M401.515 143.309V147.242H393.691V172.704H388.87V147.242H381.004V143.309H401.515Z" fill="black"/>
<path d="M411.218 143.309V172.704H406.397V143.309H411.218Z" fill="black"/>
<path d="M430.954 173C428.219 173 425.696 172.366 423.384 171.097C421.1 169.8 419.282 168.009 417.929 165.725C416.603 163.413 415.941 160.819 415.941 157.943C415.941 155.067 416.603 152.487 417.929 150.203C419.282 147.919 421.1 146.143 423.384 144.874C425.696 143.577 428.219 142.928 430.954 142.928C433.717 142.928 436.24 143.577 438.524 144.874C440.836 146.143 442.654 147.919 443.979 150.203C445.304 152.487 445.967 155.067 445.967 157.943C445.967 160.819 445.304 163.413 443.979 165.725C442.654 168.009 440.836 169.8 438.524 171.097C436.24 172.366 433.717 173 430.954 173ZM430.954 168.813C432.899 168.813 434.633 168.376 436.156 167.502C437.678 166.599 438.862 165.331 439.708 163.695C440.582 162.032 441.019 160.114 441.019 157.943C441.019 155.772 440.582 153.869 439.708 152.233C438.862 150.598 437.678 149.343 436.156 148.469C434.633 147.595 432.899 147.158 430.954 147.158C429.009 147.158 427.275 147.595 425.752 148.469C424.23 149.343 423.032 150.598 422.158 152.233C421.312 153.869 420.889 155.772 420.889 157.943C420.889 160.114 421.312 162.032 422.158 163.695C423.032 165.331 424.23 166.599 425.752 167.502C427.275 168.376 429.009 168.813 430.954 168.813Z" fill="black"/>
<path d="M474.859 172.704H470.038L455.532 150.753V172.704H450.711V143.267H455.532L470.038 165.175V143.267H474.859V172.704Z" fill="black"/>
<path d="M490.874 173C488.901 173 487.125 172.662 485.546 171.985C483.967 171.28 482.726 170.293 481.824 169.024C480.922 167.755 480.471 166.275 480.471 164.583H485.63C485.743 165.852 486.237 166.895 487.111 167.713C488.013 168.531 489.267 168.94 490.874 168.94C492.538 168.94 493.835 168.545 494.765 167.755C495.695 166.938 496.161 165.894 496.161 164.626C496.161 163.639 495.865 162.835 495.273 162.215C494.709 161.594 493.99 161.115 493.116 160.777C492.27 160.438 491.086 160.072 489.563 159.677C487.646 159.17 486.081 158.662 484.869 158.155C483.685 157.619 482.67 156.801 481.824 155.701C480.978 154.602 480.556 153.136 480.556 151.303C480.556 149.611 480.978 148.131 481.824 146.862C482.67 145.593 483.854 144.62 485.377 143.943C486.899 143.267 488.661 142.928 490.663 142.928C493.51 142.928 495.836 143.647 497.641 145.085C499.473 146.495 500.488 148.441 500.686 150.922H495.357C495.273 149.851 494.765 148.934 493.835 148.173C492.904 147.412 491.678 147.031 490.155 147.031C488.774 147.031 487.646 147.383 486.772 148.088C485.898 148.793 485.461 149.808 485.461 151.134C485.461 152.036 485.729 152.783 486.265 153.375C486.829 153.939 487.533 154.39 488.379 154.729C489.225 155.067 490.381 155.434 491.847 155.828C493.792 156.364 495.371 156.9 496.584 157.436C497.824 157.971 498.867 158.803 499.713 159.931C500.587 161.031 501.024 162.511 501.024 164.372C501.024 165.866 500.615 167.276 499.798 168.601C499.008 169.927 497.838 170.998 496.288 171.816C494.765 172.605 492.961 173 490.874 173Z" fill="black"/>
<path d="M377.441 28.1966C377.441 12.624 390.064 0 405.635 0H469.07C484.641 0 497.264 12.624 497.264 28.1966V89.8765C497.264 105.449 484.641 118.073 469.07 118.073H405.635C390.064 118.073 377.441 105.449 377.441 89.8765V28.1966Z" fill="black"/>
<path d="M408.736 136.88C400.503 136.88 393.06 135.47 386.407 132.651C379.866 129.831 374.678 125.771 370.844 120.47C367.009 115.169 365.036 108.909 364.923 101.691H390.297C390.636 106.541 392.327 110.375 395.372 113.195C398.53 116.015 402.815 117.425 408.228 117.425C413.754 117.425 418.096 116.128 421.254 113.533C424.411 110.827 425.99 107.33 425.99 103.044C425.99 99.548 424.919 96.6719 422.776 94.4162C420.633 92.1605 417.927 90.4123 414.656 89.1716C411.499 87.8182 407.101 86.352 401.462 84.773C393.793 82.5172 387.534 80.3179 382.685 78.175C377.948 75.9192 373.832 72.592 370.336 68.1934C366.953 63.6819 365.261 57.7043 365.261 50.2604C365.261 43.2676 367.009 37.1772 370.505 31.989C374.001 26.8008 378.907 22.8533 385.222 20.1464C391.538 17.3268 398.755 15.917 406.875 15.917C419.055 15.917 428.922 18.9058 436.478 24.8835C444.147 30.7483 448.376 38.9817 449.165 49.5837H423.114C422.889 45.5233 421.141 42.1962 417.871 39.6021C414.713 36.8952 410.484 35.5418 405.183 35.5418C400.56 35.5418 396.838 36.726 394.019 39.0945C391.312 41.463 389.959 44.903 389.959 49.4145C389.959 52.5725 390.974 55.223 393.004 57.3659C395.147 59.3961 397.74 61.0879 400.785 62.4413C403.943 63.6819 408.341 65.1482 413.98 66.84C421.648 69.0957 427.907 71.3514 432.757 73.6071C437.606 75.8628 441.779 79.2464 445.275 83.7579C448.771 88.2693 450.519 94.1906 450.519 101.522C450.519 107.838 448.883 113.703 445.613 119.116C442.342 124.53 437.55 128.872 431.234 132.143C424.919 135.301 417.419 136.88 408.736 136.88Z" fill="white"/>
<path d="M0 65.2045C0 55.5237 2.1615 46.8768 6.48451 39.2637C10.9015 31.5566 16.8691 25.5884 24.3874 21.3589C31.9997 17.0354 40.5047 14.8737 49.9026 14.8737C60.898 14.8737 70.5308 17.6933 78.8009 23.3327C87.071 28.972 92.8507 36.773 96.14 46.7358H73.4442C71.1887 42.0364 67.9934 38.5118 63.8584 36.1621C59.8173 33.8124 55.1184 32.6375 49.7616 32.6375C44.0289 32.6375 38.9071 34.0003 34.3961 36.726C29.9791 39.3577 26.5019 43.1172 23.9645 48.0046C21.5211 52.892 20.2993 58.6254 20.2993 65.2045C20.2993 71.6898 21.5211 77.4231 23.9645 82.4044C26.5019 87.2919 29.9791 91.0984 34.3961 93.8241C38.9071 96.4557 44.0289 97.7716 49.7616 97.7716C55.1184 97.7716 59.8173 96.5967 63.8584 94.247C67.9934 91.8033 71.1887 88.2317 73.4442 83.5323H96.14C92.8507 93.5891 87.071 101.437 78.8009 107.076C70.6248 112.622 60.992 115.394 49.9026 115.394C40.5047 115.394 31.9997 113.28 24.3874 109.05C16.8691 104.727 10.9015 98.7585 6.48451 91.1454C2.1615 83.5323 0 74.8854 0 65.2045Z" fill="black"/>
<path d="M147.675 115.817C140.156 115.817 133.39 114.173 127.375 110.883C121.361 107.499 116.615 102.753 113.138 96.6437C109.754 90.5345 108.063 83.4853 108.063 75.4963C108.063 67.5073 109.801 60.4581 113.279 54.3489C116.85 48.2396 121.69 43.5402 127.798 40.2506C133.907 36.867 140.72 35.1752 148.239 35.1752C155.757 35.1752 162.57 36.867 168.679 40.2506C174.787 43.5402 179.58 48.2396 183.058 54.3489C186.629 60.4581 188.414 67.5073 188.414 75.4963C188.414 83.4853 186.582 90.5345 182.917 96.6437C179.345 102.753 174.459 107.499 168.256 110.883C162.147 114.173 155.287 115.817 147.675 115.817ZM147.675 98.6175C151.246 98.6175 154.582 97.7716 157.683 96.0798C160.879 94.294 163.416 91.6623 165.296 88.1847C167.175 84.7072 168.115 80.4777 168.115 75.4963C168.115 68.0712 166.141 62.3849 162.194 58.4374C158.341 54.3959 153.595 52.3751 147.957 52.3751C142.318 52.3751 137.572 54.3959 133.719 58.4374C129.96 62.3849 128.08 68.0712 128.08 75.4963C128.08 82.9214 129.913 88.6547 133.578 92.6962C137.337 96.6437 142.036 98.6175 147.675 98.6175Z" fill="black"/>
<path d="M197.816 75.2143C197.816 67.3193 199.367 60.3171 202.468 54.2079C205.663 48.0986 209.986 43.3992 215.437 40.1096C220.888 36.82 226.95 35.1752 233.622 35.1752C238.697 35.1752 243.537 36.3031 248.142 38.5588C252.747 40.7205 256.412 43.6342 259.137 47.2997V10.2213H279.155V114.549H259.137V102.988C256.694 106.841 253.264 109.943 248.847 112.293C244.43 114.643 239.308 115.817 233.481 115.817C226.903 115.817 220.888 114.126 215.437 110.742C209.986 107.358 205.663 102.612 202.468 96.5027C199.367 90.2995 197.816 83.2034 197.816 75.2143ZM259.278 75.4963C259.278 70.7029 258.338 66.6144 256.459 63.2308C254.579 59.7532 252.042 57.1215 248.847 55.3357C245.651 53.456 242.221 52.5161 238.556 52.5161C234.891 52.5161 231.507 53.409 228.406 55.1948C225.305 56.9806 222.767 59.6122 220.794 63.0898C218.914 66.4734 217.975 70.5149 217.975 75.2143C217.975 79.9138 218.914 84.0492 220.794 87.6208C222.767 91.0984 225.305 93.7771 228.406 95.6568C231.601 97.5366 234.985 98.4765 238.556 98.4765C242.221 98.4765 245.651 97.5836 248.847 95.7978C252.042 93.918 254.579 91.2864 256.459 87.9028C258.338 84.4252 259.278 80.2897 259.278 75.4963Z" fill="black"/>
<path d="M371.028 73.8045C371.028 76.6242 370.84 79.1618 370.464 81.4176H313.372C313.842 87.0569 315.816 91.4743 319.293 94.67C322.77 97.8656 327.046 99.4634 332.121 99.4634C339.451 99.4634 344.667 96.3148 347.768 90.0175H369.055C366.799 97.5366 362.476 103.74 356.085 108.627C349.695 113.421 341.848 115.817 332.544 115.817C325.026 115.817 318.259 114.173 312.245 110.883C306.324 107.499 301.672 102.753 298.289 96.6437C294.999 90.5345 293.355 83.4853 293.355 75.4963C293.355 67.4133 294.999 60.3171 298.289 54.2079C301.578 48.0986 306.183 43.3992 312.104 40.1096C318.024 36.82 324.838 35.1752 332.544 35.1752C339.968 35.1752 346.594 36.773 352.42 39.9686C358.341 43.1642 362.899 47.7227 366.094 53.644C369.383 59.4712 371.028 66.1914 371.028 73.8045ZM350.588 68.1652C350.494 63.0898 348.661 59.0483 345.09 56.0407C341.519 52.939 337.149 51.3882 331.98 51.3882C327.093 51.3882 322.958 52.892 319.575 55.8997C316.286 58.8133 314.265 62.9018 313.513 68.1652H350.588Z" fill="black"/>
<path d="M509.598 155.081H714.001V160.368H509.598V155.081Z" fill="black"/>
<path d="M16.2113 155.081H220.614V160.368H16.2113V155.081Z" fill="black"/>
</svg>
